<?xml version="1.0" standalone="no"?>
<svg xmlns:xlink="http://www.w3.org/1999/xlink" id="wave" style="transform:rotate(180deg); transition: 0.3s" viewBox="0 0 1440 310" version="1.1" xmlns="http://www.w3.org/2000/svg"><defs><linearGradient id="sw-gradient-0" x1="0" x2="0" y1="1" y2="0"><stop stop-color="rgba(166.526, 69.63, 69.63, 1)" offset="0%"/><stop stop-color="rgba(73.378, 31.704, 143.758, 1)" offset="100%"/></linearGradient></defs><path style="transform:translate(0, 0px); opacity:1" fill="url(#sw-gradient-0)" d="M0,217L21.8,186C43.6,155,87,93,131,93C174.5,93,218,155,262,165.3C305.5,176,349,134,393,103.3C436.4,72,480,52,524,41.3C567.3,31,611,31,655,41.3C698.2,52,742,72,785,87.8C829.1,103,873,114,916,139.5C960,165,1004,207,1047,186C1090.9,165,1135,83,1178,82.7C1221.8,83,1265,165,1309,201.5C1352.7,238,1396,227,1440,201.5C1483.6,176,1527,134,1571,108.5C1614.5,83,1658,72,1702,77.5C1745.5,83,1789,103,1833,98.2C1876.4,93,1920,62,1964,56.8C2007.3,52,2051,72,2095,67.2C2138.2,62,2182,31,2225,46.5C2269.1,62,2313,124,2356,139.5C2400,155,2444,124,2487,134.3C2530.9,145,2575,196,2618,196.3C2661.8,196,2705,145,2749,144.7C2792.7,145,2836,196,2880,211.8C2923.6,227,2967,207,3011,201.5C3054.5,196,3098,207,3120,211.8L3141.8,217L3141.8,310L3120,310C3098.2,310,3055,310,3011,310C2967.3,310,2924,310,2880,310C2836.4,310,2793,310,2749,310C2705.5,310,2662,310,2618,310C2574.5,310,2531,310,2487,310C2443.6,310,2400,310,2356,310C2312.7,310,2269,310,2225,310C2181.8,310,2138,310,2095,310C2050.9,310,2007,310,1964,310C1920,310,1876,310,1833,310C1789.1,310,1745,310,1702,310C1658.2,310,1615,310,1571,310C1527.3,310,1484,310,1440,310C1396.4,310,1353,310,1309,310C1265.5,310,1222,310,1178,310C1134.5,310,1091,310,1047,310C1003.6,310,960,310,916,310C872.7,310,829,310,785,310C741.8,310,698,310,655,310C610.9,310,567,310,524,310C480,310,436,310,393,310C349.1,310,305,310,262,310C218.2,310,175,310,131,310C87.3,310,44,310,22,310L0,310Z"/></svg>